<svg width="52" height="64" viewBox="0 0 52 64" fill="none" xmlns="http://www.w3.org/2000/svg">
<path d="M45.1313 64H6.73297C5.03566 64 3.40787 63.3257 2.20769 62.1256C1.00751 60.9254 0.333252 59.2976 0.333252 57.6003V6.40253C0.333252 4.70522 1.00751 3.07743 2.20769 1.87725C3.40787 0.67707 5.03566 0.00281563 6.73297 0.00281563H29.132C29.1607 -0.000938545 29.1897 -0.000938545 29.2184 0.00281563H29.2376C29.2678 0.0122606 29.2989 0.0186918 29.3304 0.0220149C29.612 0.0412141 29.8904 0.0956113 30.1591 0.185207H30.2935C30.3526 0.226546 30.4082 0.272559 30.4599 0.322801C30.8085 0.477812 31.1261 0.69463 31.3975 0.962773L50.5966 20.1619C50.8648 20.4332 51.0817 20.7509 51.2366 21.0995C51.2645 21.1687 51.289 21.2392 51.3102 21.3107L51.3422 21.4003C51.4318 21.6659 51.483 21.9442 51.499 22.2258C51.5018 22.2577 51.5093 22.289 51.5214 22.3186V22.3378C51.5265 22.3588 51.5297 22.3803 51.531 22.4018V57.6003C51.531 59.2976 50.8567 60.9254 49.6566 62.1256C48.4564 63.3257 46.8286 64 45.1313 64ZM33.6886 38.4011V54.4004H36.6965V47.8727H41.3682V45.1912H36.6965V41.0922H41.9314V38.4011H33.6886ZM21.8491 38.4011V54.4004H25.7081C26.5074 54.4399 27.3054 54.2994 28.0431 53.9893C28.7808 53.6791 29.4394 53.2073 29.9703 52.6085C31.074 51.2003 31.6268 49.4382 31.5255 47.6519V45.06C31.5999 43.2925 31.0315 41.5578 29.9256 40.1771C28.8856 38.9931 27.3657 38.3403 25.7881 38.4011H21.8491ZM9.93283 38.4011V54.4004H12.9407V48.7719H14.9438C16.2814 48.8455 17.5869 48.3495 18.5405 47.4087C19.4489 46.3921 19.9202 45.0586 19.8524 43.6969C19.9118 42.3025 19.4407 40.9373 18.5341 39.8763C18.0911 39.3851 17.5449 38.9981 16.9347 38.743C16.3245 38.488 15.6653 38.3712 15.0046 38.4011H9.93283ZM29.132 6.40253V22.4018H45.1313L29.132 6.40253ZM25.7593 51.7189H24.857V41.0922H25.9513C26.3338 41.0697 26.7157 41.1434 27.0623 41.3066C27.4089 41.4698 27.709 41.7174 27.9352 42.0266C28.4056 42.9961 28.6072 44.0745 28.5176 45.1496V47.9303C28.588 48.9543 28.3672 49.9782 27.8776 50.8774C27.6193 51.179 27.2915 51.4131 26.9224 51.5598C26.5534 51.7064 26.1542 51.761 25.7593 51.7189ZM15.0046 46.0808H12.9375V41.0922H15.0334C15.2908 41.095 15.5433 41.1631 15.7672 41.2902C15.991 41.4172 16.179 41.599 16.3134 41.8186C16.6589 42.3914 16.8253 43.0505 16.7933 43.7193C16.8335 44.3416 16.6682 44.9599 16.3229 45.4792C16.166 45.6762 15.9649 45.8333 15.7358 45.9378C15.5067 46.0423 15.2562 46.0913 15.0046 46.0808Z" fill="#BABABA"/>
</svg>
