<?xml version="1.0" encoding="utf-8"?>
<!-- Generator: Adobe Illustrator 24.0.2, SVG Export Plug-In . SVG Version: 6.00 Build 0)  -->
<svg version="1.1" id="Capa_1" xmlns="http://www.w3.org/2000/svg" xmlns:xlink="http://www.w3.org/1999/xlink" x="0px" y="0px"
	 viewBox="0 0 64 64" style="enable-background:new 0 0 64 64;" xml:space="preserve">
<style type="text/css">
	.st0{fill:#FFFFFF;}
</style>
<path class="st0" d="M35.3,33.8l-4.8,4.8C30.2,39,30,39.4,30,39.9c0,0.6,0.2,0.9,0.6,1.3c0.4,0.4,0.7,0.6,1.3,0.6
	c0.6,0,0.9-0.2,1.3-0.6l7.6-7.6c0.6-0.6,0.7-1.1,0.7-1.7c0-0.6-0.2-1.3-0.7-1.7l-7.7-7.7c-0.4-0.4-0.7-0.6-1.3-0.6
	c-0.6,0-0.9,0.2-1.3,0.6c-0.4,0.4-0.6,0.7-0.6,1.3c0,0.6,0.2,0.9,0.6,1.3l4.6,4.8H22.8c-0.6,0-1.1,0.2-1.3,0.6
	c-0.4,0.4-0.6,0.9-0.6,1.5c0,0.6,0.2,1.1,0.6,1.3c0.4,0.4,0.7,0.6,1.3,0.6H35.3z M32,61.1c-4.1,0-7.7-0.7-11.4-2.2
	c-3.5-1.5-6.6-3.7-9.2-6.3c-2.6-2.6-4.8-5.7-6.3-9.2S2.9,36.1,2.9,32s0.7-7.7,2.2-11.4c1.5-3.5,3.7-6.6,6.3-9.2s5.7-4.8,9.2-6.3
	S27.9,2.9,32,2.9s7.7,0.7,11.4,2.2c3.5,1.5,6.6,3.7,9.2,6.3c2.6,2.6,4.8,5.7,6.3,9.2c1.5,3.5,2.2,7.4,2.2,11.4s-0.7,7.7-2.2,11.4
	c-1.5,3.5-3.7,6.6-6.3,9.2c-2.6,2.6-5.7,4.8-9.2,6.3C39.9,60.4,36.1,61.1,32,61.1z M32,57.2c7,0,13.1-2.4,17.9-7.4
	c5-5,7.4-10.9,7.4-17.9c0-7-2.4-13.1-7.4-17.9c-5-5-10.9-7.4-17.9-7.4s-13.1,2.4-17.9,7.4c-5,5-7.4,10.9-7.4,17.9s2.4,13.1,7.4,17.9
	C18.9,54.8,25,57.2,32,57.2z"/>
</svg>
