<?xml version="1.0" encoding="utf-8"?>
<!-- Generator: Adobe Illustrator 24.0.2, SVG Export Plug-In . SVG Version: 6.00 Build 0)  -->
<svg version="1.1" id="Capa_1" xmlns="http://www.w3.org/2000/svg" xmlns:xlink="http://www.w3.org/1999/xlink" x="0px" y="0px"
	 viewBox="0 0 64 64" style="enable-background:new 0 0 64 64;" xml:space="preserve">
<style type="text/css">
	.st0{fill:#074228;}
</style>
<path class="st0" d="M52.1,4.6h-4.2V2.1c0-1.1-0.9-2-2-2s-2,0.9-2,2v2.5H19.3V2.1c0-1.1-0.9-2-2-2c-1.1,0-2,0.9-2,2v2.5H11
	c-4.7,0-8.6,3.9-8.6,8.6v42.3c0,4.7,3.9,8.6,8.6,8.6h33.7c8.8,0,15.9-7.1,15.9-15.9v-35C60.7,8.4,56.8,4.6,52.1,4.6L52.1,4.6z
	 M11,8.7h4.2v3c0,1.1,0.9,2,2,2s2-0.9,2-2v-3h24.5v3c0,1.1,0.9,2,2,2c1.1,0,2-0.9,2-2v-3h4.2c2.5,0,4.5,2,4.5,4.5v6.2H6.5v-6.2
	C6.5,10.7,8.5,8.7,11,8.7L11,8.7z M6.5,55.5v-32h50.1v20.3c0,1.1-0.9,2-2,2h-5.2c-3.7,0-6.8,3-6.8,6.8v5.3c0,1.1-0.9,2-2,2H11
	C8.5,60,6.5,58,6.5,55.5L6.5,55.5z M46.3,59.9c0.2-0.6,0.3-1.3,0.3-1.9v-5.3c0-1.5,1.2-2.7,2.7-2.7h5.2c0.7,0,1.3-0.1,2-0.3
	C55.8,54.9,51.6,59.1,46.3,59.9L46.3,59.9z"/>
<g>
	<path class="st0" d="M27.8,44.6c0-0.7-0.2-1.3-0.7-1.7c-0.4-0.4-1-0.6-1.7-0.6c-0.2,0-0.5,0-0.7,0.1s-0.5,0.1-0.7,0.3
		c-0.3-0.1-0.5-0.4-0.7-0.7s-0.4-0.6-0.4-0.9c0.4-0.2,0.9-0.4,1.5-0.5c0.5-0.1,1.2-0.2,1.9-0.2c0.8,0,1.6,0.2,2.3,0.5
		c0.7,0.3,1.2,0.8,1.7,1.4c0.4,0.6,0.6,1.4,0.6,2.4c0,0.8-0.1,1.5-0.4,2.1c-0.3,0.6-0.7,1.1-1.2,1.5s-1.1,0.7-1.7,0.9
		s-1.3,0.3-2,0.3c-1,0-1.9-0.2-2.8-0.5s-1.5-0.7-2-1.1c0.1-0.3,0.2-0.7,0.4-1s0.5-0.6,0.8-0.9c0.4,0.3,0.9,0.6,1.4,0.8
		c0.5,0.2,1.1,0.3,1.7,0.3c0.5,0,1-0.1,1.4-0.3c0.4-0.2,0.7-0.5,1-0.9S27.8,45.2,27.8,44.6z M27.4,39.8c-0.3,0.3-0.6,0.6-1,0.8
		c-0.4,0.3-0.7,0.5-1.1,0.7c-0.4,0.2-0.7,0.3-0.9,0.5l-1.6-0.6l2.6-2.7c0.1-0.1,0.3-0.3,0.5-0.5c0.2-0.2,0.4-0.4,0.6-0.6
		c0.2-0.2,0.4-0.3,0.5-0.4l-0.1-0.1c-0.3,0.1-0.6,0.1-1.1,0.2c-0.5,0.1-0.9,0.1-1.4,0.1h-3.1c-0.1-0.2-0.1-0.4-0.2-0.6
		c0-0.2,0-0.3,0-0.5c0-0.2,0-0.4,0.1-0.6c0-0.2,0.1-0.5,0.2-0.7h8.2c0.2,0.4,0.4,0.8,0.5,1c0.1,0.3,0.1,0.5,0.1,0.7
		c0,0.2,0,0.4-0.1,0.6c-0.1,0.2-0.2,0.4-0.4,0.6L27.4,39.8z"/>
	<path class="st0" d="M33,42c0-1.3,0.1-2.5,0.3-3.6c0.2-1,0.7-1.9,1.4-2.7c0.4-0.4,0.9-0.7,1.4-1c0.5-0.3,1.3-0.4,2.1-0.4
		c0.9,0,1.6,0.1,2.1,0.4c0.5,0.3,1,0.6,1.4,1c0.7,0.8,1.2,1.7,1.4,2.7c0.2,1,0.3,2.2,0.3,3.6c0,1.3-0.1,2.5-0.3,3.6
		c-0.2,1-0.7,1.9-1.4,2.7c-0.4,0.4-0.9,0.7-1.4,1c-0.5,0.3-1.2,0.4-2.1,0.4c-0.8,0-1.5-0.1-2.1-0.4s-1-0.6-1.5-1
		c-0.7-0.8-1.2-1.7-1.4-2.7C33.1,44.5,33,43.3,33,42z M36,42c0,1.2,0.1,2.2,0.2,2.9c0.1,0.7,0.3,1.3,0.5,1.7
		c0.2,0.3,0.4,0.5,0.6,0.6c0.3,0.1,0.6,0.2,0.9,0.2c0.3,0,0.6-0.1,0.9-0.2s0.5-0.3,0.6-0.6c0.2-0.4,0.4-1,0.5-1.7
		c0.1-0.7,0.2-1.7,0.2-2.9c0-1.2-0.1-2.2-0.2-2.9c-0.1-0.7-0.3-1.3-0.5-1.7c-0.2-0.3-0.4-0.5-0.6-0.6c-0.3-0.1-0.6-0.2-0.9-0.2
		c-0.3,0-0.6,0.1-0.9,0.2c-0.3,0.1-0.5,0.3-0.6,0.6c-0.2,0.4-0.4,1-0.5,1.7C36.1,39.8,36,40.8,36,42z"/>
</g>
</svg>
