<?xml version="1.0" encoding="utf-8"?>
<!-- Generator: Adobe Illustrator 24.0.2, SVG Export Plug-In . SVG Version: 6.00 Build 0)  -->
<svg version="1.1" id="Capa_1" xmlns="http://www.w3.org/2000/svg" xmlns:xlink="http://www.w3.org/1999/xlink" x="0px" y="0px"
	 viewBox="0 0 64 64" style="enable-background:new 0 0 64 64;" xml:space="preserve">
<style type="text/css">
	.st0{fill:#074228;}
</style>
<path class="st0" d="M58.7,12.6H14.2c-2.1,0-3.9,1.4-4.6,3.2H5.3c-1.3,0-2.4,1.1-2.4,2.4v27.5c0,3.1,2.5,5.7,5.7,5.7h50.1
	c1.3,0,2.4-1.1,2.4-2.4V15C61.1,13.7,60,12.6,58.7,12.6z M7.7,45.7V20.7h1.6v25.1c0,0.4-0.4,0.8-0.8,0.8C8.1,46.6,7.7,46.2,7.7,45.7
	z M56.3,46.6H14.2c0-0.3,0.1-0.5,0.1-0.8V17.4h42V46.6z M20.3,34.4H34c0.7,0,1.2-0.5,1.2-1.2v-9.7c0-0.7-0.5-1.2-1.2-1.2H20.3
	c-0.7,0-1.2,0.5-1.2,1.2v9.7C19.1,33.9,19.6,34.4,20.3,34.4z M23.1,26.3h8.1v4h-8.1V26.3z M19.1,40.5v-2.4c0-0.7,0.5-1.2,1.2-1.2H34
	c0.7,0,1.2,0.5,1.2,1.2v2.4c0,0.7-0.5,1.2-1.2,1.2H20.3C19.6,41.7,19.1,41.2,19.1,40.5z M38.5,40.5v-2.4c0-0.7,0.5-1.2,1.2-1.2h10.5
	c0.7,0,1.2,0.5,1.2,1.2v2.4c0,0.7-0.5,1.2-1.2,1.2H39.7C39,41.7,38.5,41.2,38.5,40.5z M38.5,25.9v-2.4c0-0.7,0.5-1.2,1.2-1.2h10.5
	c0.7,0,1.2,0.5,1.2,1.2v2.4c0,0.7-0.5,1.2-1.2,1.2H39.7C39,27.1,38.5,26.6,38.5,25.9z M38.5,33.2v-2.4c0-0.7,0.5-1.2,1.2-1.2h10.5
	c0.7,0,1.2,0.5,1.2,1.2v2.4c0,0.7-0.5,1.2-1.2,1.2H39.7C39,34.4,38.5,33.9,38.5,33.2z"/>
</svg>
