<svg id="Capa_1" data-name="Capa 1" xmlns="http://www.w3.org/2000/svg" xmlns:xlink="http://www.w3.org/1999/xlink" viewBox="0 0 4 4"><defs><style>.cls-1,.cls-3{fill:none;}.cls-2{clip-path:url(#clip-path);}.cls-3{stroke:#000;stroke-miterlimit:10;stroke-width:0.25px;}</style><clipPath id="clip-path"><rect class="cls-1" width="4" height="4"/></clipPath></defs><title>Mesa de trabajo 4</title><g class="cls-2"><line class="cls-3" x1="942.59" y1="-124.86" x2="3.32" y2="814.41"/><line class="cls-3" x1="938.59" y1="-124.86" x2="-0.68" y2="814.41"/><line class="cls-3" x1="930.59" y1="-124.86" x2="-8.68" y2="814.41"/><line class="cls-3" x1="926.59" y1="-124.86" x2="-12.68" y2="814.41"/><line class="cls-3" x1="922.59" y1="-124.86" x2="-16.68" y2="814.41"/><line class="cls-3" x1="918.59" y1="-124.86" x2="-20.68" y2="814.41"/><line class="cls-3" x1="934.59" y1="-124.86" x2="-4.68" y2="814.41"/><line class="cls-3" x1="910.59" y1="-124.86" x2="-28.68" y2="814.41"/><line class="cls-3" x1="906.59" y1="-124.86" x2="-32.68" y2="814.41"/><line class="cls-3" x1="902.59" y1="-124.86" x2="-36.68" y2="814.41"/><line class="cls-3" x1="898.59" y1="-124.86" x2="-40.68" y2="814.41"/><line class="cls-3" x1="914.59" y1="-124.86" x2="-24.68" y2="814.41"/><line class="cls-3" x1="890.59" y1="-124.86" x2="-48.68" y2="814.41"/><line class="cls-3" x1="886.59" y1="-124.86" x2="-52.68" y2="814.41"/><line class="cls-3" x1="882.59" y1="-124.86" x2="-56.68" y2="814.41"/><line class="cls-3" x1="878.59" y1="-124.86" x2="-60.68" y2="814.41"/><line class="cls-3" x1="894.59" y1="-124.86" x2="-44.68" y2="814.41"/><line class="cls-3" x1="870.59" y1="-124.86" x2="-68.68" y2="814.41"/><line class="cls-3" x1="866.59" y1="-124.86" x2="-72.68" y2="814.41"/><line class="cls-3" x1="862.59" y1="-124.86" x2="-76.68" y2="814.41"/><line class="cls-3" x1="858.59" y1="-124.86" x2="-80.68" y2="814.41"/><line class="cls-3" x1="874.59" y1="-124.86" x2="-64.68" y2="814.41"/><line class="cls-3" x1="850.59" y1="-124.86" x2="-88.68" y2="814.41"/><line class="cls-3" x1="846.59" y1="-124.86" x2="-92.68" y2="814.41"/><line class="cls-3" x1="842.59" y1="-124.86" x2="-96.68" y2="814.41"/><line class="cls-3" x1="838.59" y1="-124.86" x2="-100.68" y2="814.41"/><line class="cls-3" x1="854.59" y1="-124.86" x2="-84.68" y2="814.41"/><line class="cls-3" x1="830.59" y1="-124.86" x2="-108.68" y2="814.41"/><line class="cls-3" x1="826.59" y1="-124.86" x2="-112.68" y2="814.41"/><line class="cls-3" x1="822.59" y1="-124.86" x2="-116.68" y2="814.41"/><line class="cls-3" x1="818.59" y1="-124.86" x2="-120.68" y2="814.41"/><line class="cls-3" x1="834.59" y1="-124.86" x2="-104.68" y2="814.41"/><line class="cls-3" x1="810.59" y1="-124.86" x2="-128.68" y2="814.41"/><line class="cls-3" x1="806.59" y1="-124.86" x2="-132.68" y2="814.41"/><line class="cls-3" x1="802.59" y1="-124.86" x2="-136.68" y2="814.41"/><line class="cls-3" x1="798.59" y1="-124.86" x2="-140.68" y2="814.41"/><line class="cls-3" x1="814.59" y1="-124.86" x2="-124.68" y2="814.41"/><line class="cls-3" x1="790.59" y1="-124.86" x2="-148.68" y2="814.41"/><line class="cls-3" x1="786.59" y1="-124.86" x2="-152.68" y2="814.41"/><line class="cls-3" x1="782.59" y1="-124.86" x2="-156.68" y2="814.41"/><line class="cls-3" x1="778.59" y1="-124.86" x2="-160.68" y2="814.41"/><line class="cls-3" x1="794.59" y1="-124.86" x2="-144.68" y2="814.41"/><line class="cls-3" x1="770.59" y1="-124.86" x2="-168.68" y2="814.41"/><line class="cls-3" x1="766.59" y1="-124.86" x2="-172.68" y2="814.41"/><line class="cls-3" x1="762.59" y1="-124.86" x2="-176.68" y2="814.41"/><line class="cls-3" x1="758.59" y1="-124.86" x2="-180.68" y2="814.41"/><line class="cls-3" x1="774.59" y1="-124.86" x2="-164.68" y2="814.41"/><line class="cls-3" x1="750.59" y1="-124.86" x2="-188.68" y2="814.41"/><line class="cls-3" x1="746.59" y1="-124.86" x2="-192.68" y2="814.41"/><line class="cls-3" x1="742.59" y1="-124.86" x2="-196.68" y2="814.41"/><line class="cls-3" x1="738.59" y1="-124.86" x2="-200.68" y2="814.41"/><line class="cls-3" x1="754.59" y1="-124.86" x2="-184.68" y2="814.41"/><line class="cls-3" x1="730.59" y1="-124.86" x2="-208.68" y2="814.41"/><line class="cls-3" x1="726.59" y1="-124.86" x2="-212.68" y2="814.41"/><line class="cls-3" x1="722.59" y1="-124.86" x2="-216.68" y2="814.41"/><line class="cls-3" x1="718.59" y1="-124.86" x2="-220.68" y2="814.41"/><line class="cls-3" x1="734.59" y1="-124.86" x2="-204.68" y2="814.41"/><line class="cls-3" x1="710.59" y1="-124.86" x2="-228.68" y2="814.41"/><line class="cls-3" x1="706.59" y1="-124.86" x2="-232.68" y2="814.41"/><line class="cls-3" x1="702.59" y1="-124.86" x2="-236.68" y2="814.41"/><line class="cls-3" x1="698.59" y1="-124.86" x2="-240.68" y2="814.41"/><line class="cls-3" x1="714.59" y1="-124.86" x2="-224.68" y2="814.41"/><line class="cls-3" x1="690.59" y1="-124.86" x2="-248.68" y2="814.41"/><line class="cls-3" x1="686.59" y1="-124.86" x2="-252.68" y2="814.41"/><line class="cls-3" x1="682.59" y1="-124.86" x2="-256.68" y2="814.41"/><line class="cls-3" x1="678.59" y1="-124.86" x2="-260.68" y2="814.41"/><line class="cls-3" x1="694.59" y1="-124.86" x2="-244.68" y2="814.41"/><line class="cls-3" x1="670.59" y1="-124.86" x2="-268.68" y2="814.41"/><line class="cls-3" x1="666.59" y1="-124.86" x2="-272.68" y2="814.41"/><line class="cls-3" x1="662.59" y1="-124.86" x2="-276.68" y2="814.41"/><line class="cls-3" x1="658.59" y1="-124.86" x2="-280.68" y2="814.41"/><line class="cls-3" x1="674.59" y1="-124.86" x2="-264.68" y2="814.41"/><line class="cls-3" x1="650.59" y1="-124.86" x2="-288.68" y2="814.41"/><line class="cls-3" x1="646.59" y1="-124.86" x2="-292.68" y2="814.41"/><line class="cls-3" x1="642.59" y1="-124.86" x2="-296.68" y2="814.41"/><line class="cls-3" x1="638.59" y1="-124.86" x2="-300.68" y2="814.41"/><line class="cls-3" x1="654.59" y1="-124.86" x2="-284.68" y2="814.41"/><line class="cls-3" x1="630.59" y1="-124.86" x2="-308.68" y2="814.41"/><line class="cls-3" x1="626.59" y1="-124.86" x2="-312.68" y2="814.41"/><line class="cls-3" x1="622.59" y1="-124.86" x2="-316.68" y2="814.41"/><line class="cls-3" x1="618.59" y1="-124.86" x2="-320.68" y2="814.41"/><line class="cls-3" x1="634.59" y1="-124.86" x2="-304.68" y2="814.41"/><line class="cls-3" x1="610.59" y1="-124.86" x2="-328.68" y2="814.41"/><line class="cls-3" x1="606.59" y1="-124.86" x2="-332.68" y2="814.41"/><line class="cls-3" x1="602.59" y1="-124.86" x2="-336.68" y2="814.41"/><line class="cls-3" x1="598.59" y1="-124.86" x2="-340.68" y2="814.41"/><line class="cls-3" x1="614.59" y1="-124.86" x2="-324.68" y2="814.41"/><line class="cls-3" x1="590.59" y1="-124.86" x2="-348.68" y2="814.41"/><line class="cls-3" x1="586.59" y1="-124.86" x2="-352.68" y2="814.41"/><line class="cls-3" x1="582.59" y1="-124.86" x2="-356.68" y2="814.41"/><line class="cls-3" x1="578.59" y1="-124.86" x2="-360.68" y2="814.41"/><line class="cls-3" x1="594.59" y1="-124.86" x2="-344.68" y2="814.41"/><line class="cls-3" x1="570.59" y1="-124.86" x2="-368.68" y2="814.41"/><line class="cls-3" x1="566.59" y1="-124.86" x2="-372.68" y2="814.41"/><line class="cls-3" x1="562.59" y1="-124.86" x2="-376.68" y2="814.41"/><line class="cls-3" x1="558.59" y1="-124.86" x2="-380.68" y2="814.41"/><line class="cls-3" x1="574.59" y1="-124.86" x2="-364.68" y2="814.41"/><line class="cls-3" x1="550.59" y1="-124.86" x2="-388.68" y2="814.41"/><line class="cls-3" x1="546.59" y1="-124.86" x2="-392.68" y2="814.41"/><line class="cls-3" x1="542.59" y1="-124.86" x2="-396.68" y2="814.41"/><line class="cls-3" x1="538.59" y1="-124.86" x2="-400.68" y2="814.41"/><line class="cls-3" x1="554.59" y1="-124.86" x2="-384.68" y2="814.41"/><line class="cls-3" x1="530.59" y1="-124.86" x2="-408.68" y2="814.41"/><line class="cls-3" x1="526.59" y1="-124.86" x2="-412.68" y2="814.41"/><line class="cls-3" x1="522.59" y1="-124.86" x2="-416.68" y2="814.41"/><line class="cls-3" x1="518.59" y1="-124.86" x2="-420.68" y2="814.41"/><line class="cls-3" x1="534.59" y1="-124.86" x2="-404.68" y2="814.41"/><line class="cls-3" x1="510.59" y1="-124.86" x2="-428.68" y2="814.41"/><line class="cls-3" x1="506.59" y1="-124.86" x2="-432.68" y2="814.41"/><line class="cls-3" x1="502.59" y1="-124.86" x2="-436.68" y2="814.41"/><line class="cls-3" x1="498.59" y1="-124.86" x2="-440.68" y2="814.41"/><line class="cls-3" x1="514.59" y1="-124.86" x2="-424.68" y2="814.41"/><line class="cls-3" x1="490.59" y1="-124.86" x2="-448.68" y2="814.41"/><line class="cls-3" x1="486.59" y1="-124.86" x2="-452.68" y2="814.41"/><line class="cls-3" x1="482.59" y1="-124.86" x2="-456.68" y2="814.41"/><line class="cls-3" x1="478.59" y1="-124.86" x2="-460.68" y2="814.41"/><line class="cls-3" x1="494.59" y1="-124.86" x2="-444.68" y2="814.41"/><line class="cls-3" x1="470.59" y1="-124.86" x2="-468.68" y2="814.41"/><line class="cls-3" x1="466.59" y1="-124.86" x2="-472.68" y2="814.41"/><line class="cls-3" x1="462.59" y1="-124.86" x2="-476.68" y2="814.41"/><line class="cls-3" x1="458.59" y1="-124.86" x2="-480.68" y2="814.41"/><line class="cls-3" x1="474.59" y1="-124.86" x2="-464.68" y2="814.41"/><line class="cls-3" x1="450.59" y1="-124.86" x2="-488.68" y2="814.41"/><line class="cls-3" x1="446.59" y1="-124.86" x2="-492.68" y2="814.41"/><line class="cls-3" x1="442.59" y1="-124.86" x2="-496.68" y2="814.41"/><line class="cls-3" x1="438.59" y1="-124.86" x2="-500.68" y2="814.41"/><line class="cls-3" x1="454.59" y1="-124.86" x2="-484.68" y2="814.41"/><line class="cls-3" x1="430.59" y1="-124.86" x2="-508.68" y2="814.41"/><line class="cls-3" x1="426.59" y1="-124.86" x2="-512.68" y2="814.41"/><line class="cls-3" x1="422.59" y1="-124.86" x2="-516.68" y2="814.41"/><line class="cls-3" x1="418.59" y1="-124.86" x2="-520.68" y2="814.41"/><line class="cls-3" x1="434.59" y1="-124.86" x2="-504.68" y2="814.41"/><line class="cls-3" x1="410.59" y1="-124.86" x2="-528.68" y2="814.41"/><line class="cls-3" x1="406.59" y1="-124.86" x2="-532.68" y2="814.41"/><line class="cls-3" x1="402.59" y1="-124.86" x2="-536.68" y2="814.41"/><line class="cls-3" x1="398.59" y1="-124.86" x2="-540.68" y2="814.41"/><line class="cls-3" x1="414.59" y1="-124.86" x2="-524.68" y2="814.41"/><line class="cls-3" x1="390.59" y1="-124.86" x2="-548.68" y2="814.41"/><line class="cls-3" x1="386.59" y1="-124.86" x2="-552.68" y2="814.41"/><line class="cls-3" x1="382.59" y1="-124.86" x2="-556.68" y2="814.41"/><line class="cls-3" x1="378.59" y1="-124.86" x2="-560.68" y2="814.41"/><line class="cls-3" x1="394.59" y1="-124.86" x2="-544.68" y2="814.41"/><line class="cls-3" x1="370.59" y1="-124.86" x2="-568.68" y2="814.41"/><line class="cls-3" x1="366.59" y1="-124.86" x2="-572.68" y2="814.41"/><line class="cls-3" x1="362.59" y1="-124.86" x2="-576.68" y2="814.41"/><line class="cls-3" x1="358.59" y1="-124.86" x2="-580.68" y2="814.41"/><line class="cls-3" x1="374.59" y1="-124.86" x2="-564.68" y2="814.41"/><line class="cls-3" x1="350.59" y1="-124.86" x2="-588.68" y2="814.41"/><line class="cls-3" x1="346.59" y1="-124.86" x2="-592.68" y2="814.41"/><line class="cls-3" x1="342.59" y1="-124.86" x2="-596.68" y2="814.41"/><line class="cls-3" x1="338.59" y1="-124.86" x2="-600.68" y2="814.41"/><line class="cls-3" x1="354.59" y1="-124.86" x2="-584.68" y2="814.41"/><line class="cls-3" x1="330.59" y1="-124.86" x2="-608.68" y2="814.41"/><line class="cls-3" x1="326.59" y1="-124.86" x2="-612.68" y2="814.41"/><line class="cls-3" x1="322.59" y1="-124.86" x2="-616.68" y2="814.41"/><line class="cls-3" x1="318.59" y1="-124.86" x2="-620.68" y2="814.41"/><line class="cls-3" x1="334.59" y1="-124.86" x2="-604.68" y2="814.41"/><line class="cls-3" x1="310.59" y1="-124.86" x2="-628.68" y2="814.41"/><line class="cls-3" x1="306.59" y1="-124.86" x2="-632.68" y2="814.41"/><line class="cls-3" x1="302.59" y1="-124.86" x2="-636.68" y2="814.41"/><line class="cls-3" x1="298.59" y1="-124.86" x2="-640.68" y2="814.41"/><line class="cls-3" x1="314.59" y1="-124.86" x2="-624.68" y2="814.41"/><line class="cls-3" x1="290.59" y1="-124.86" x2="-648.68" y2="814.41"/><line class="cls-3" x1="286.59" y1="-124.86" x2="-652.68" y2="814.41"/><line class="cls-3" x1="282.59" y1="-124.86" x2="-656.68" y2="814.41"/><line class="cls-3" x1="278.59" y1="-124.86" x2="-660.68" y2="814.41"/><line class="cls-3" x1="294.59" y1="-124.86" x2="-644.68" y2="814.41"/><line class="cls-3" x1="270.59" y1="-124.86" x2="-668.68" y2="814.41"/><line class="cls-3" x1="266.59" y1="-124.86" x2="-672.68" y2="814.41"/><line class="cls-3" x1="262.59" y1="-124.86" x2="-676.68" y2="814.41"/><line class="cls-3" x1="258.59" y1="-124.86" x2="-680.68" y2="814.41"/><line class="cls-3" x1="274.59" y1="-124.86" x2="-664.68" y2="814.41"/><line class="cls-3" x1="250.59" y1="-124.86" x2="-688.68" y2="814.41"/><line class="cls-3" x1="246.59" y1="-124.86" x2="-692.68" y2="814.41"/><line class="cls-3" x1="242.59" y1="-124.86" x2="-696.68" y2="814.41"/><line class="cls-3" x1="238.59" y1="-124.86" x2="-700.68" y2="814.41"/><line class="cls-3" x1="254.59" y1="-124.86" x2="-684.68" y2="814.41"/><line class="cls-3" x1="230.59" y1="-124.86" x2="-708.68" y2="814.41"/><line class="cls-3" x1="226.59" y1="-124.86" x2="-712.68" y2="814.41"/><line class="cls-3" x1="222.59" y1="-124.86" x2="-716.68" y2="814.41"/><line class="cls-3" x1="218.59" y1="-124.86" x2="-720.68" y2="814.41"/><line class="cls-3" x1="234.59" y1="-124.86" x2="-704.68" y2="814.41"/><line class="cls-3" x1="210.59" y1="-124.86" x2="-728.68" y2="814.41"/><line class="cls-3" x1="206.59" y1="-124.86" x2="-732.68" y2="814.41"/><line class="cls-3" x1="202.59" y1="-124.86" x2="-736.68" y2="814.41"/><line class="cls-3" x1="198.59" y1="-124.86" x2="-740.68" y2="814.41"/><line class="cls-3" x1="214.59" y1="-124.86" x2="-724.68" y2="814.41"/><line class="cls-3" x1="190.59" y1="-124.86" x2="-748.68" y2="814.41"/><line class="cls-3" x1="186.59" y1="-124.86" x2="-752.68" y2="814.41"/><line class="cls-3" x1="182.59" y1="-124.86" x2="-756.68" y2="814.41"/><line class="cls-3" x1="178.59" y1="-124.86" x2="-760.68" y2="814.41"/><line class="cls-3" x1="194.59" y1="-124.86" x2="-744.68" y2="814.41"/><line class="cls-3" x1="170.59" y1="-124.86" x2="-768.68" y2="814.41"/><line class="cls-3" x1="166.59" y1="-124.86" x2="-772.68" y2="814.41"/><line class="cls-3" x1="162.59" y1="-124.86" x2="-776.68" y2="814.41"/><line class="cls-3" x1="158.59" y1="-124.86" x2="-780.68" y2="814.41"/><line class="cls-3" x1="174.59" y1="-124.86" x2="-764.68" y2="814.41"/><line class="cls-3" x1="150.59" y1="-124.86" x2="-788.68" y2="814.41"/><line class="cls-3" x1="146.59" y1="-124.86" x2="-792.68" y2="814.41"/><line class="cls-3" x1="142.59" y1="-124.86" x2="-796.68" y2="814.41"/><line class="cls-3" x1="138.59" y1="-124.86" x2="-800.68" y2="814.41"/><line class="cls-3" x1="154.59" y1="-124.86" x2="-784.68" y2="814.41"/><line class="cls-3" x1="130.59" y1="-124.86" x2="-808.68" y2="814.41"/><line class="cls-3" x1="126.59" y1="-124.86" x2="-812.68" y2="814.41"/><line class="cls-3" x1="122.59" y1="-124.86" x2="-816.68" y2="814.41"/><line class="cls-3" x1="118.59" y1="-124.86" x2="-820.68" y2="814.41"/><line class="cls-3" x1="134.59" y1="-124.86" x2="-804.68" y2="814.41"/></g></svg>