<?xml version="1.0" encoding="UTF-8"?>
<svg id="Capa_1" data-name="Capa 1" xmlns="http://www.w3.org/2000/svg" viewBox="0 0 48 48">
  <defs>
    <style>
      .cls-1 {
        fill: #fff;
        fill-rule: evenodd;
      }

      .cls-2 {
        fill: #2d886c;
      }
    </style>
  </defs>
  <circle class="cls-2" cx="24" cy="24" r="24"/>
  <path class="cls-1" d="M13.88,16.34h11.33c.52,0,.99.21,1.33.55.34.34.55.81.55,1.33v2.15h2.45l3.83-2.42c.26-.16.61-.09.77.18.06.09.09.2.09.3v1.95c.47.03.9.23,1.22.55.34.34.55.81.55,1.33v7.52c0,.52-.21.99-.55,1.33-.34.34-.81.55-1.33.55h-11.33c-.52,0-.99-.21-1.33-.55-.34-.34-.55-.81-.55-1.33v-2.15h-2.45l-3.83,2.42c-.26.16-.61.09-.77-.18-.06-.09-.09-.2-.09-.3v-1.95c-.47-.03-.9-.23-1.22-.55-.34-.34-.55-.81-.55-1.33v-7.52c0-.52.21-.99.55-1.33.34-.34.81-.55,1.33-.55ZM27.09,21.5v4.25c0,.52-.21.99-.55,1.33s-.81.55-1.33.55h-3.18v2.15c0,.21.09.4.22.53s.33.22.53.22h11.33c.21,0,.4-.09.53-.22s.22-.33.22-.53v-7.52c0-.21-.09-.4-.22-.53s-.33-.22-.53-.22h-.45c-.31,0-.56-.25-.56-.56v-1.49l-3.06,1.94c-.09.07-.21.11-.34.11h-2.61Z"/>
  <path class="cls-2" d="M19.08,24.63c0-.35.25-.61.58-.61.35,0,.58.26.58.61s-.23.61-.58.61-.58-.27-.58-.61ZM19.33,23.23l-.14-4.71h.94l-.14,4.71h-.67Z"/>
</svg>