<?xml version="1.0" encoding="UTF-8"?>
<svg id="Capa_1" xmlns="http://www.w3.org/2000/svg" version="1.1" viewBox="0 0 48 48">
  <!-- Generator: Adobe Illustrator 29.5.0, SVG Export Plug-In . SVG Version: 2.1.0 Build 137)  -->
  <defs>
    <style>
      .st0 {
        fill: #2d886c;
      }

      .st1 {
        fill: #fff;
      }
    </style>
  </defs>
  <circle class="st0" cx="24" cy="24" r="24"/>
  <g>
    <path class="st1" d="M11.9,22.8c-.4,0-.6-.3-.6-.7s.2-.6.5-.7c0,.5,0,.9.1,1.4Z"/>
    <path class="st1" d="M28.3,21.2c0,0,0,.2,0,.3,0,.4,0,.8-.2,1.2l-.7-.5-1,2c-.1.2-.4.4-.6.4-.3,0-.5-.2-.6-.4l-1.2-2.3-.7,1.4c-.1.3-.4.4-.7.4-.3,0-.5-.2-.6-.5l-1-3.5-1.3,6c0,.3-.3.5-.7.6,0,0,0,0,0,0-.3,0-.6-.2-.7-.5l-1.1-3.7-.7,1.5c0,.2-.2.3-.4.4-.1,0-.2,0-.4,0-.3-.6-.5-1.3-.6-1.9l.4.2,1.2-2.5c.1-.3.4-.4.7-.4.3,0,.5.2.6.5l.8,2.7,1.3-6c0-.3.3-.5.7-.6.3,0,.6.2.7.5l1.3,4.4.5-1c.1-.2.4-.4.6-.4h0c.3,0,.5.2.6.4l1.2,2.3.7-1.4c0-.2.3-.3.5-.4.2,0,.4,0,.6,0l.8.5s0,0,0,.1Z"/>
    <path class="st1" d="M32,22.2c0,.4-.3.7-.6.7,0-.5.1-.9.1-1.4.3,0,.5.4.5.7Z"/>
    <path class="st1" d="M36,35.3c-.9.9-2.4.9-3.4,0l-4.3-4.2c-.3-.3-.3-.9,0-1.2l.2-.2-.9-.9c.3-.2.6-.5.9-.8.3-.3.6-.6.8-1l.9.9.2-.2c.3-.3.9-.3,1.2,0l4.2,4.2c.9.9.9,2.4,0,3.3Z"/>
    <path class="st1" d="M15.1,14.7c-1.9,1.9-2.8,4.3-2.7,6.7,0,2.2,1,4.5,2.7,6.2,3.6,3.6,9.5,3.6,13.1,0,1.7-1.7,2.6-4,2.7-6.2.3-8.2-9.9-12.7-15.9-6.8ZM28.9,21.5c0,1.8-.8,3.4-2,4.7h0c-2.8,2.8-7.4,2.8-10.2,0-1.4-1.4-2.1-3.2-2.1-5,0-1.9.7-3.6,2.1-5h0c4.5-4.5,12.3-1.3,12.3,5,0,0,0,.2,0,.3Z"/>
  </g>
</svg>