<?xml version="1.0" encoding="UTF-8"?>
<svg id="Capa_1" data-name="Capa 1" xmlns="http://www.w3.org/2000/svg" viewBox="0 0 48 48">
  <defs>
    <style>
      .cls-1 {
        fill: #2d886c;
      }

      .cls-2 {
        fill: #fff;
      }
    </style>
  </defs>
  <circle class="cls-1" cx="24" cy="24" r="24"/>
  <g>
    <path class="cls-2" d="M28.67,20.67h-9.33c-.37,0-.67.29-.67.67v5.33c0,.37.29.67.67.67h9.33c.37,0,.67-.29.67-.67v-5.33c0-.37-.29-.67-.67-.67ZM28,26h-8v-4h8v4Z"/>
    <path class="cls-2" d="M15.81,30.19c-.27-.27-.69-.27-.93,0-.27.27-.27.69,0,.93l.85.88h-1.73c-.37,0-.67-.29-.67-.67v-14.67c0-.37.29-.67.67-.67h4.67v2c0,.37.29.67.67.67h9.33c.37,0,.67-.29.67-.67v-5.33c0-.37-.29-.67-.67-.67h-9.33c-.37,0-.67.29-.67.67v2h-4.67c-1.09,0-2,.91-2,2v14.67c0,1.09.91,2,2,2h1.73l-.85.85c-.27.27-.27.69,0,.93.27.27.69.27.93,0l2-2c.27-.27.27-.69,0-.93l-2-2ZM20,13.33h8v4h-8v-4Z"/>
    <path class="cls-2" d="M34,14.67h-1.73l.85-.85c.27-.27.27-.69,0-.93-.27-.27-.69-.27-.93,0l-2,2c-.27.27-.27.69,0,.93l2,2c.27.27.69.27.93,0,.27-.27.27-.69,0-.93l-.85-.88h1.73c.37,0,.67.29.67.67v15.33c0,.37-.29.67-.67.67h-4.67v-2.67c0-.37-.29-.67-.67-.67h-9.33c-.37,0-.67.29-.67.67v5.33c0,.37.29.67.67.67h9.33c.37,0,.67-.29.67-.67v-1.33h4.67c1.09,0,2-.91,2-2v-15.33c0-1.09-.91-2-2-2ZM28,34.67h-8v-4h8v4Z"/>
  </g>
</svg>