<?xml version="1.0" encoding="UTF-8"?>
<svg id="Capa_1" data-name="Capa 1" xmlns="http://www.w3.org/2000/svg" viewBox="0 0 48 48">
  <defs>
    <style>
      .cls-1 {
        fill: #2d886c;
      }

      .cls-2 {
        fill: #fff;
      }
    </style>
  </defs>
  <circle class="cls-1" cx="24" cy="24" r="24"/>
  <g>
    <path class="cls-2" d="M23.94,12.08s-1.77-.76-1.91,9.47-6.18,9.5-7.21,8.98-3.06-1.44-3.98-.52.44,5.59,5.45,5.59,9.05-2.28,9.42-12.66c.37-10.38.22-11.29-1.77-10.87Z"/>
    <ellipse class="cls-2" cx="16.76" cy="27.37" rx="2.76" ry="2.06" transform="translate(-11.44 12.05) rotate(-30)"/>
    <path class="cls-2" d="M31.9,31.27c.81.58,1.87.49,2.38-.21.5-.7.25-1.74-.56-2.32-.81-.58-1.87-.49-2.38.21-.5.7-.25,1.74.56,2.32Z"/>
    <path class="cls-2" d="M37.34,32.45c-.37-.96-2.94-.15-4.53-.15s-2.91-.82-3.5-6c-.59-5.19.15-9.68-1.47-9.68,0,0-1.55-.81-1.33,6.33s.88,13.14,5.82,13.05c4.93-.09,5.37-2.6,5.01-3.55Z"/>
  </g>
</svg>