<?xml version="1.0" encoding="UTF-8"?>
<svg id="Capa_1" data-name="Capa 1" xmlns="http://www.w3.org/2000/svg" viewBox="0 0 48 48">
  <defs>
    <style>
      .cls-1 {
        fill: #fff;
        fill-rule: evenodd;
      }

      .cls-2 {
        fill: #2d886c;
      }
    </style>
  </defs>
  <circle class="cls-2" cx="24" cy="24" r="24"/>
  <path class="cls-1" d="M15.5,15.91c-1.86.15-3.26,1.66-3.35,3.52-.07,1.53-.14,3.3-.14,4.52s.07,3.02.15,4.57c.09,1.84,1.46,3.34,3.29,3.51,2.03.19,4.96.38,8.56.38s6.52-.19,8.54-.37c1.84-.17,3.21-1.68,3.3-3.52.08-1.63.15-3.49.15-4.55s-.07-2.89-.15-4.5c-.09-1.87-1.5-3.39-3.36-3.54-2-.16-4.88-.31-8.49-.31s-6.51.15-8.5.31ZM21.6,20.38l6.19,3.56-6.19,3.56v-7.12Z"/>
</svg>