<?xml version="1.0" encoding="UTF-8"?>
<svg id="Capa_1" data-name="Capa 1" xmlns="http://www.w3.org/2000/svg" viewBox="0 0 48 48">
  <defs>
    <style>
      .cls-1 {
        fill: #2d886c;
      }

      .cls-2 {
        fill: #fff;
      }
    </style>
  </defs>
  <circle class="cls-1" cx="24" cy="24" r="24"/>
  <g>
    <path class="cls-2" d="M16.11,22.45c.43,0,3.49-5.03,3.49-6.96s-1.56-3.49-3.49-3.49-3.49,1.56-3.49,3.49,3.07,6.96,3.49,6.96ZM14.86,15.47c0-.69.56-1.25,1.25-1.25s1.25.56,1.25,1.25-.56,1.25-1.25,1.25c-.69,0-1.25-.56-1.25-1.25Z"/>
    <path class="cls-2" d="M30.77,19.32c-2.97,0-5.38,2.41-5.38,5.38s4.72,10.72,5.38,10.72,5.38-7.74,5.38-10.72-2.41-5.38-5.38-5.38ZM30.77,26.6c-1.06,0-1.93-.87-1.93-1.93s.87-1.93,1.93-1.93,1.93.87,1.93,1.93c0,1.06-.87,1.93-1.93,1.93Z"/>
    <path class="cls-2" d="M29.25,34.82h-13.28c-.81,0-1.47-.66-1.47-1.47v-.29c0-.81.66-1.47,1.47-1.47h5.88c1.46,0,2.65-1.19,2.65-2.65v-.59c0-1.46-1.19-2.65-2.65-2.65h-7.65c-.65,0-1.18-.53-1.18-1.18v-.29c0-.65.53-1.18,1.18-1.18h.66c.32,0,.59-.26.59-.59s-.26-.59-.59-.59h-.66c-1.3,0-2.35,1.06-2.35,2.35v.29c0,1.3,1.06,2.35,2.35,2.35h7.65c.81,0,1.47.66,1.47,1.47v.59c0,.81-.66,1.47-1.47,1.47h-5.88c-1.46,0-2.65,1.19-2.65,2.65v.29c0,1.46,1.19,2.65,2.65,2.65h13.28c.32,0,.59-.26.59-.59,0-.33-.26-.59-.59-.59Z"/>
  </g>
</svg>