<?xml version="1.0" encoding="UTF-8"?>
<svg id="Capa_1" data-name="Capa 1" xmlns="http://www.w3.org/2000/svg" viewBox="0 0 48 48">
  <defs>
    <style>
      .cls-1 {
        fill: #2d886c;
      }

      .cls-2 {
        fill: #fff;
      }
    </style>
  </defs>
  <circle class="cls-1" cx="24" cy="24" r="24"/>
  <g>
    <path class="cls-2" d="M24.42,16.11h6.15c.41,0,.72-.34.72-.72v-1.16c0-.41-.34-.72-.72-.72h-1.16c-.21-.87-1.01-1.52-1.93-1.52s-1.73.65-1.93,1.52h-1.14c-.41,0-.72.33-.72.72v1.16c-.03.41.31.72.72.72h0ZM27.48,13.18c.46,0,.82.36.82.82s-.36.83-.82.83-.83-.36-.83-.83.39-.82.83-.82Z"/>
    <path class="cls-2" d="M33.27,14.57h-.9v.82c0,.98-.79,1.81-1.8,1.81h-6.15c-.97,0-1.79-.81-1.79-1.81v-.82h-.9c-1,0-1.8.82-1.8,1.8v5.39c2.67.75,4.62,3.2,4.62,6.11,0,.96-.22,1.91-.64,2.77l1.98,1.79h7.29c1.03,0,1.86-.84,1.86-1.87v-14.18c.02-1.01-.8-1.8-1.77-1.8h0ZM31.9,29.99h-5.24c-.28,0-.54-.23-.54-.54s.24-.55.54-.55h5.21c.31,0,.54.23.54.55,0,.28-.23.54-.51.54h0ZM31.9,26.95h-5.41c-.28,0-.54-.23-.54-.54s.24-.54.54-.54h5.38c.31,0,.54.23.54.54,0,.28-.23.54-.51.54h0ZM31.9,23.92h-6.52c-.29,0-.55-.23-.55-.54s.24-.54.55-.54h6.5c.31,0,.54.22.54.54,0,.28-.23.54-.51.54h0ZM31.9,20.88h-8.8c-.28,0-.54-.23-.54-.54s.24-.54.54-.54h8.77c.31,0,.54.23.54.54,0,.28-.23.54-.51.54h0Z"/>
    <path class="cls-2" d="M22.51,30.85c.59-.85.94-1.88.94-2.99,0-2.89-2.35-5.25-5.25-5.25s-5.25,2.35-5.25,5.25,2.35,5.25,5.25,5.25c1.11,0,2.14-.35,2.99-.94l3.1,3.44c.45.5,1.23.52,1.71.05.48-.48.46-1.26-.05-1.71l-3.44-3.1h0ZM18.2,31.77c-2.16,0-3.91-1.75-3.91-3.91s1.75-3.91,3.91-3.91,3.91,1.75,3.91,3.91-1.75,3.91-3.91,3.91Z"/>
    <path class="cls-2" d="M19.98,26.07c-.2,0-.39.08-.51.23l-1.8,2.01-.72-.79c-.13-.14-.32-.23-.52-.23-.17,0-.33.06-.46.17-.28.26-.3.69-.05.97l1.23,1.37c.13.14.32.23.51.23s.37-.08.51-.23l2.31-2.57c.26-.28.24-.72-.03-.98-.13-.11-.29-.17-.46-.17h0Z"/>
  </g>
</svg>