<?xml version="1.0" encoding="UTF-8"?>
<svg id="Capa_1" data-name="Capa 1" xmlns="http://www.w3.org/2000/svg" viewBox="0 0 48 48">
  <defs>
    <style>
      .cls-1 {
        fill: #fff;
        fill-rule: evenodd;
      }

      .cls-2 {
        fill: #2d886c;
      }
    </style>
  </defs>
  <circle class="cls-2" cx="24" cy="24" r="24"/>
  <path class="cls-1" d="M36.55,17.15l-11.28-6.28c-.9-.5-1.64-.5-2.54,0l-11.28,6.28c-.02.09.02.28.17.28h24.75c.16,0,.19-.19.17-.28h0ZM35.3,33.04H12.7v1.46h22.59v-1.46ZM33.97,30.7H14.03v1.46h19.95v-1.46ZM25.38,29.82v-9.17h-2.75v9.17h2.75ZM18.56,29.82v-9.17h-2.75v9.17h2.75ZM32.19,29.82v-9.17h-2.75v9.17h2.75ZM33.97,18.32H14.03v1.46h19.95v-1.46Z"/>
</svg>