<?xml version="1.0" encoding="UTF-8"?>
<svg id="Capa_1" data-name="Capa 1" xmlns="http://www.w3.org/2000/svg" viewBox="0 0 48 48">
  <defs>
    <style>
      .cls-1 {
        fill: #2d886c;
      }

      .cls-2 {
        fill: #fff;
      }
    </style>
  </defs>
  <circle class="cls-1" cx="24" cy="24" r="24"/>
  <path class="cls-2" d="M28.15,31.32l.6,4.54s-.02.08-.03.1c-.01.02-.05.04-.09.04h-9.82s-.08-.03-.09-.04c-.02-.02-.04-.05-.03-.1l.6-4.54c0-.06.06-.11.12-.11h8.62c.06,0,.12.05.12.11h0ZM29.12,18.84c-.13-.12-.3-.19-.49-.19-.38,0-.69.31-.69.69,0,.02,0,.04-.01.06l-.27,2.17c0,.51-.47,1.15-1.02,1.25-.47.09-.94,0-1.39.21-.86.32-1.59.97-2.22,1.66.8-1.16,1.99-2.2,3.47-2.3.37-.14.6-.52.56-.87l.04-7.06c0-.19-.07-.36-.2-.49-.13-.13-.31-.2-.49-.2-.38,0-.69.31-.69.69v4.12c0,.23-.19.41-.41.41s-.41-.19-.41-.41v-5.89c0-.18-.07-.36-.2-.5-.14-.14-.35-.21-.55-.19-.35.03-.63.36-.63.75v6.08c0,.23-.19.41-.41.41s-.41-.19-.41-.41v-4.37c0-.19-.07-.36-.2-.49-.15-.14-.35-.21-.55-.2-.35.03-.63.36-.63.75v6c0,.23-.19.41-.41.41s-.41-.19-.41-.41v-3.55c0-.25-.11-.56-.2-.65-.13-.13-.31-.2-.49-.2-.34,0-.69.43-.69.85v7.04c0,1.06.32,2.1.9,2.98.5.75,1.19,1.39,2.04,1.7.51.18,1.07.27,1.6.27.36,0,.72-.04,1.08-.1-1.05.41-2.22.54-3.32.23-.12-.05-.3-.1-.49-.17l-.15,1.46h5.99l-.19-1.9c-.01-.12.03-.23.11-.32,1.71-1.88,2.65-4.31,2.65-6.85v-1.97c0-.18-.07-.36-.2-.5h0Z"/>
</svg>